<svg xmlns="http://www.w3.org/2000/svg" width="1200" height="340" viewBox="0 0 1200 340" role="img" aria-labelledby="title desc">
  <title id="title">ScoreFence</title>
  <desc id="desc">Vendor-neutral retrieval score contract testing</desc>
  <defs>
    <linearGradient id="bg" x1="0" y1="0" x2="1" y2="1">
      <stop offset="0" stop-color="#06131F"/>
      <stop offset="1" stop-color="#102A3C"/>
    </linearGradient>
    <linearGradient id="brand" x1="0" y1="0" x2="1" y2="1">
      <stop offset="0" stop-color="#51E3C2"/>
      <stop offset="1" stop-color="#53A7FF"/>
    </linearGradient>
    <marker id="arrow" markerWidth="10" markerHeight="10" refX="8" refY="3" orient="auto">
      <path d="M0 0 L0 6 L9 3 Z" fill="#557A90"/>
    </marker>
  </defs>

  <rect width="1200" height="340" rx="28" fill="url(#bg)"/>
  <circle cx="1120" cy="10" r="200" fill="#2C688E" opacity="0.10"/>
  <circle cx="80" cy="360" r="180" fill="#218C78" opacity="0.08"/>

  <g transform="translate(64 82)" font-family="Inter,Segoe UI,Arial,sans-serif">
    <rect width="72" height="72" rx="19" fill="#0D2838" stroke="#315A70"/>
    <circle cx="18" cy="22" r="5" fill="#51E3C2"/>
    <circle cx="18" cy="36" r="5" fill="#53A7FF"/>
    <circle cx="18" cy="50" r="5" fill="#8B9EFF"/>
    <path d="M31 15 V57 M42 15 V57 M53 15 V57 M28 25 H56 M28 47 H56" stroke="url(#brand)" stroke-width="3" stroke-linecap="round"/>
    <path d="M41 31 L47 37 L59 24" fill="none" stroke="#E9FFF9" stroke-width="4" stroke-linecap="round" stroke-linejoin="round"/>

    <text x="94" y="55" fill="#F5FBFF" font-size="64" font-weight="760" letter-spacing="-2">ScoreFence</text>
    <text x="2" y="119" fill="#B4CBD7" font-size="26">Retrieval score contracts, verified.</text>
    <text x="2" y="158" fill="#7898AA" font-size="18">Vendor-neutral · Out-of-band · Evidence-first</text>
  </g>

  <g transform="translate(650 71)" font-family="Inter,Segoe UI,Arial,sans-serif">
    <g>
      <rect width="132" height="156" rx="20" fill="#0B2230" stroke="#294B5E"/>
      <circle cx="44" cy="63" r="11" fill="#51E3C2"/>
      <circle cx="88" cy="47" r="11" fill="#53A7FF"/>
      <circle cx="88" cy="82" r="11" fill="#8B9EFF"/>
      <path d="M55 61 L77 51 M55 66 L77 78" stroke="#476D82" stroke-width="4" stroke-linecap="round"/>
      <text x="66" y="129" text-anchor="middle" fill="#B9CED8" font-size="16" font-weight="700">TARGET</text>
    </g>

    <path d="M143 78 H186" stroke="#557A90" stroke-width="3" marker-end="url(#arrow)"/>

    <g transform="translate(198 0)">
      <rect width="132" height="156" rx="20" fill="#0B2230" stroke="#397181"/>
      <g transform="translate(28 31)" stroke="url(#brand)" stroke-width="5" stroke-linecap="round">
        <path d="M0 0 V70 M25 0 V70 M50 0 V70 M75 0 V70"/>
        <path d="M-8 19 H83 M-8 52 H83"/>
      </g>
      <text x="66" y="129" text-anchor="middle" fill="#71DEC9" font-size="16" font-weight="700">ADAPTER</text>
    </g>

    <path d="M341 78 H384" stroke="#557A90" stroke-width="3" marker-end="url(#arrow)"/>

    <g transform="translate(396 0)">
      <rect width="132" height="156" rx="20" fill="#0B2230" stroke="#38685E"/>
      <rect x="31" y="26" width="70" height="78" rx="12" fill="#071721" stroke="#31584F"/>
      <path d="M47 67 L60 80 L86 51" fill="none" stroke="#66E2B2" stroke-width="7" stroke-linecap="round" stroke-linejoin="round"/>
      <text x="66" y="129" text-anchor="middle" fill="#72E0B5" font-size="16" font-weight="700">CONTRACT</text>
    </g>
  </g>
</svg>
